# xmcd
#
# Track frame offsets: 
#        150
#        17273
#        32269
#        56887
#        78205
#        107793
#        125378
#        146714
#        169005
#        190714
#        208091
#        224706
#
# Disc length: 3259 seconds
#
# Revision: 0
# Processed by: cddbd v1.5.2PL0 Copyright (c) Steve Scherf et al.
# Submitted via: ExactAudioCopyFreeDBPlugin 1.0
#
DISCID=a30cb90c
DTITLE=Cherish the Ladies - Country Crossroads: The Nashville Sessions
DYEAR=2011
DGENRE=Celtic
TTITLE0=The Boat to Bofin - The View Across the Valley - Martin Ainsbo
TTITLE0=ro's
TTITLE1=Cherish the Ladies with Maura O'Connell - We Dreamed Our Dream
TTITLE1=s
TTITLE2=The Wave and the Spade - The Woods of Old Limerick
TTITLE3=Cherish the Ladies with Vince Gill - Donegal Rain
TTITLE4=Southfork Posse - The Malbay Shuffle - Brian Quinn's - The Cav
TTITLE4=an Reel
TTITLE5=Longing for Home
TTITLE6=Cherish the Ladies with Nancy Griffith - Dirty Old Town
TTITLE7=Cherish the Ladies with Deidre Connolly - For Ireland I'd Not 
TTITLE7=Tell Her Name
TTITLE8=Shoot When The Ducks Are Flying - The Mullingar Lea - O'Connor
TTITLE8=Donn's
TTITLE9=Cherish the Ladies with Maura O'Connell - The Verdant Braes of
TTITLE9=Skreen
TTITLE10=Waltzing Down The Aisle
TTITLE11=An Cailin Rua - Minus Imus - The Rambling Sailor
EXTD=
EXTT0=
EXTT1=
EXTT2=
EXTT3=
EXTT4=
EXTT5=
EXTT6=
EXTT7=
EXTT8=
EXTT9=
EXTT10=
EXTT11=
PLAYORDER=
